<?xml version="1.0" encoding="UTF-8"?>
<svg width="70" height="70" viewBox="0 0 70 70" xmlns="http://www.w3.org/2000/svg">
  <defs>
    <linearGradient id="iconGradient" x1="0%" y1="0%" x2="100%" y2="100%">
      <stop offset="0%" style="stop-color:#00c6ff"/>
      <stop offset="100%" style="stop-color:#0072ff"/>
    </linearGradient>
  </defs>
  <path d="M35 10C21.2 10 10 21.2 10 35s11.2 25 25 25 25-11.2 25-25S48.8 10 35 10zm0 45c-11 0-20-9-20-20s9-20 20-20 20 9 20 20-9 20-20 20z" fill="url(#iconGradient)"/>
  <path d="M35 25c-5.5 0-10 4.5-10 10s4.5 10 10 10 10-4.5 10-10-4.5-10-10-10zm0 15c-2.8 0-5-2.2-5-5s2.2-5 5-5 5 2.2 5 5-2.2 5-5 5z" fill="url(#iconGradient)"/>
</svg>