<?xml version="1.0" encoding="UTF-8"?>
<svg width="70" height="70" viewBox="0 0 70 70" xmlns="http://www.w3.org/2000/svg">
  <defs>
    <linearGradient id="supportGradient" x1="0%" y1="0%" x2="100%" y2="100%">
      <stop offset="0%" style="stop-color:#00c6ff"/>
      <stop offset="100%" style="stop-color:#0072ff"/>
    </linearGradient>
  </defs>
  <path d="M35 10C21.2 10 10 21.2 10 35s11.2 25 25 25 25-11.2 25-25S48.8 10 35 10zm0 5c11 0 20 9 20 20s-9 20-20 20-20-9-20-20 9-20 20-20z" fill="url(#supportGradient)"/>
  <path d="M35 25c-5.5 0-10 4.5-10 10h5c0-2.8 2.2-5 5-5s5 2.2 5 5c0 2.8-2.2 5-5 5v5c5.5 0 10-4.5 10-10s-4.5-10-10-10zm-1 25h2v5h-2v-5z" fill="url(#supportGradient)"/>
</svg>